<?xml version="1.0" standalone="no"?>
<svg version="1.1" id="color_x5F_1" xmlns="http://www.w3.org/2000/svg" xmlns:xlink="http://www.w3.org/1999/xlink" x="0px" y="0px" width="600px" height="600px" viewBox="0 0 600 600" enable-background="new 0 0 600 600" xml:space="preserve">
<polygon id="color_x5F_11" fill="#f8f8f8" points="268,483.688 34.167,349.135 34.167,363.75 268,499.109 565.832,327.264 
	565.832,309.727 "></polygon>
<path id="color_x5F_10" fill="#4a90e2" d="M450.327,230.707c-0.402,0.202-0.906,0.403-1.31,0.605
	c-1.613-0.504-3.326-1.008-5.141-1.613l-27.112-47.371l-36.485,20.359l34.066,56.543l27.919-16.429
	c-0.807,2.923-1.512,6.249-2.117,9.071l-6.854,4.132l-4.737,2.822l-12.8,7.861l0,0c-1.915,1.209-5.342-1.108-5.342-1.108
	s-35.68-60.575-36.284-62.792s1.008-5.14,1.008-5.14l-2.822,1.612l1.915-1.108l37.695-21.872c4.435-1.613,7.861,1.713,7.861,1.713
	L450.327,230.707z M118.226,313.858h27.616l4.939-24.391c-21.267,5.745-38.603,0.403-38.603,0.403l3.225,12.7L118.226,313.858z
	 M226.373,265.681V158.038c0-4.132,2.218-7.962,5.745-9.979l124.979-72.165c2.217-1.311,4.636-1.713,6.854-1.512
	c2.822,2.016,4.636,5.342,4.636,9.272l0.202,107.441c0,1.311-0.202,2.52-0.604,3.629c-0.907,2.62-2.722,4.938-5.141,6.35
	l-125.181,72.367c-2.217,1.311-4.636,1.713-6.854,1.512C228.288,272.837,226.373,269.612,226.373,265.681z M313.758,224.962
	c0-2.117-1.21-4.032-2.62-4.334c-1.411-0.303-2.621,1.108-2.621,3.225c0,2.016,1.108,4.032,2.621,4.334
	C312.649,228.591,313.758,227.079,313.758,224.962z M234.033,247.841c0,3.528,1.713,6.451,4.132,8.265
	c2.016,0.202,4.132-0.201,6.148-1.31l111.574-64.505c3.226-1.814,5.141-5.241,5.141-8.97l-0.202-87.989
	c0-3.527-1.713-6.451-4.132-8.265c-2.016-0.202-4.133,0.202-6.148,1.31l-111.473,64.405c-3.225,1.814-5.14,5.241-5.14,8.869v88.191
	H234.033z M178.196,403.763c0,0-6.047,3.125-10.381,0L112.279,370.2c0,0-5.846-6.552-1.612-11.188l141.811-81.438
	c0,0,10.18-6.45,6.753-16.429l-8.97,5.141v3.527l-146.044,84.261c0,0-8.164,8.566,0,20.359l63.598,36.989
	c0,0,5.04,3.125,10.482,0.706c4.435-2.017,17.537-10.382,22.375-13.506c-2.318-1.411-4.536-2.924-6.45-4.536L178.196,403.763z
	 M402.251,335.227c0.504-0.605,0.807-1.311,0.807-2.117c0-1.915-1.512-3.427-3.427-3.427c-0.807,0-1.513,0.302-2.117,0.706
	c-0.705,0.604-1.209,1.512-1.311,2.52v0.101c0,1.612,1.21,3.023,2.722,3.325c0.202,0,0.403,0.102,0.604,0.102
	C400.639,336.436,401.646,335.932,402.251,335.227z M385.318,317.891c-1.311,0-2.419,0.402-3.326,1.108
	c-1.311,1.008-2.217,2.62-2.217,4.435c0,2.117,1.108,3.83,2.821,4.838c0.807,0.403,1.714,0.705,2.722,0.705l0,0c0,0,0,0,0.101,0
	c0.706,0,1.411-0.101,2.016-0.402c1.714-0.706,3.024-2.117,3.427-4.031c0.102-0.404,0.102-0.807,0.102-1.21
	C390.861,320.309,388.342,317.891,385.318,317.891z M406.182,352.158c-1.411-0.402-2.016-0.402-2.016-0.402l-2.318,0.402
	c0,0-1.713,1.008-2.217,2.722c-0.706,2.62,0.604,5.946,2.923,6.45c2.317,0.504,2.317,0.504,2.317,0.504l-1.813-5.342l0.806-1.311
	l1.814,0.202l1.612,5.04c0,0,1.915-1.714,2.117-3.932C409.608,354.578,407.593,352.562,406.182,352.158z M379.271,314.766
	c-0.302,0-0.604,0.101-0.906,0.101h-0.102c-0.302,0-0.504,0.101-0.806,0.101c-0.102,0-0.202,0-0.303,0c-0.201,0-0.403,0-0.604,0
	c-0.101,0-0.202,0-0.303,0c-0.201,0-0.403,0-0.604,0c-0.101,0-0.201,0-0.303,0c-0.201,0-0.402,0-0.504,0c-0.101,0-0.201,0-0.302,0
	c-0.202,0-0.303,0-0.504,0c-0.102,0-0.202,0-0.303,0c-0.201,0-0.303,0-0.504,0c-0.101,0-0.201,0-0.303,0c-0.201,0-0.302,0-0.402,0
	c-0.102,0-0.202,0-0.303,0s-0.303,0-0.403,0s-0.201,0-0.302,0c-0.102,0-0.303,0-0.403,0c-0.102,0-0.102,0-0.202,0s-0.201,0-0.302,0
	c-0.102,0-0.102,0-0.202,0s-0.201,0-0.302,0c-0.102,0-0.102,0-0.202,0s-0.201,0-0.201,0h-0.101c-0.102,0-0.102,0-0.202,0h-0.101
	h-0.101l0,0h-0.102l0,0l0,0c0,0,0,0-0.101,0h-0.101h-0.101h-0.101c0,0,0,0-0.102,0c-0.201-0.101-0.504-0.101-0.806-0.201l0,0
	c-0.101,0-0.202-0.101-0.303-0.101h-0.101c-0.101,0-0.202-0.101-0.403-0.101h-0.101c-0.604-0.202-1.21-0.403-1.915-0.706h-0.101
	c-0.102-0.101-0.303-0.101-0.403-0.202c-0.101,0-0.101,0-0.202-0.1c-0.101-0.102-0.302-0.102-0.402-0.202
	c-0.102,0-0.102-0.101-0.202-0.101c-0.101-0.102-0.302-0.102-0.504-0.201c-4.435-2.218-9.474-6.25-7.559-13.305
	c2.923-10.785,12.296-12.8,15.118-13.103v0.907h0.705v-0.907c3.528,0.201,17.235,3.628,16.731,20.259
	C387.838,311.943,383.706,314.061,379.271,314.766z M380.581,304.989c-1.008-5.947-16.73-12.296-20.964-4.838
	c-1.814,3.226,1.612,8.265,5.946,10.18s11.087,1.411,13.606-1.311C380.783,307.207,380.581,304.989,380.581,304.989z
	 M273.442,313.858l52.814,30.54l-84.764,48.781l-52.612-30.539l0,0l59.769-34.57L273.442,313.858z M227.18,376.046l-9.877-5.745
	l-5.04,3.527l9.877,5.543L227.18,376.046z M314.362,345.002l-43.44-24.995l-67.126,39.106l43.44,24.996L314.362,345.002z
	 M332.706,314.463l3.326,3.729v1.915l-1.814,0.403l-4.334-3.931c0,0-1.209,2.822,0,4.938c1.21,2.116,4.435,1.814,4.435,1.814
	s1.109,0.201,2.722-0.706c0.504-0.303,0.907-0.705,1.311-1.108c0.806-0.907,1.209-2.116,0.907-3.729
	C339.056,315.471,336.637,313.053,332.706,314.463z M350.849,327.264c-0.202,0-0.303-0.102-0.504-0.102
	c-0.605,0-1.109,0.202-1.613,0.505c-0.806,0.504-1.31,1.411-1.31,2.419c0,0.101,0,0.201,0,0.303c0.101,1.512,1.411,2.62,2.923,2.62
	c1.612,0,2.923-1.311,2.923-2.923c0-0.504-0.202-1.008-0.403-1.411C352.36,327.868,351.654,327.364,350.849,327.264z
	 M362.237,313.758c-0.705-0.403-1.512-0.605-2.318-0.605c-2.62,0-4.838,2.117-4.838,4.838c0,0.605,0.102,1.21,0.303,1.714
	c0.604,1.714,2.218,2.923,4.031,3.024c0.102,0,0.303,0,0.403,0c2.621,0,4.838-2.117,4.838-4.838
	C364.757,316.076,363.749,314.564,362.237,313.758z"></path>
<path id="color_x5F_9" fill="#000000" d="M241.492,393.18l84.764-48.781v5.039l-18.041,10.684l-66.623,39.207L188.98,368.99v-6.248
	L241.492,393.18z M231.01,274.954c-2.822-2.016-4.637-5.342-4.637-9.272V158.038c0-4.132,2.218-7.962,5.745-9.979l124.979-72.165
	c2.217-1.311,4.636-1.713,6.854-1.512c-3.528-2.52-8.366-3.226-12.599-0.706l-124.979,72.165c-3.527,2.016-5.745,5.846-5.745,9.979
	v86.477v21.166C220.628,269.713,225.466,274.349,231.01,274.954z M148.765,273.341c-0.604-0.202-1.108-0.302-1.713-0.403
	c-1.31-0.302-2.822-0.604-4.334-0.806c-3.427-0.504-7.257-0.807-11.389-0.807c-3.326,0-6.45,0.202-9.374,0.504
	c-1.108,0.101-2.217,0.302-3.326,0.504c-0.101,0-0.202,0-0.303,0.101c-0.907,0.202-1.915,0.302-2.721,0.504
	c-0.604,0.101-1.209,0.302-1.713,0.403c-4.435,1.209-7.257,2.923-7.257,4.838c0,0.202,0,0.302,0.101,0.504v0.101
	c0,0.101,0.101,0.202,0.201,0.403c0.101,0.202,0.202,0.302,0.303,0.504l0.101,0.101c0.202,0.201,0.302,0.403,0.504,0.504l0,0
	c0.504,0.403,1.008,0.706,1.713,1.108c0,0,0.101,0,0.202,0.101c0.302,0.101,0.605,0.302,0.907,0.403
	c0.101,0,0.202,0.101,0.302,0.101c0.202,0.101,0.403,0.101,0.605,0.202l0,0l0.403-0.303c0,0,4.334-4.435,16.933-4.938
	c12.599-0.605,21.569,3.83,22.678,5.14l0,0c0.101,0,0.202-0.101,0.302-0.101c0.202-0.101,0.303-0.101,0.504-0.202
	c0.202-0.101,0.403-0.202,0.605-0.302c0.101-0.101,0.202-0.101,0.403-0.202c0.302-0.101,0.504-0.302,0.706-0.403l0.101-0.101
	c0.302-0.202,0.504-0.403,0.706-0.504l0.101-0.101c0.202-0.202,0.303-0.302,0.504-0.504l0.101-0.101
	c0.101-0.101,0.202-0.302,0.302-0.504c0-0.101,0.101-0.202,0.101-0.303v-0.101c0-0.202,0.101-0.302,0.101-0.504
	C156.022,276.264,153.2,274.651,148.765,273.341z M294.507,264.875c-2.116-0.101-14.01-10.18-18.041-13.708l-1.411,0.806
	l16.126,14.917c0,0,3.225,1.008,6.35,0c3.225-1.008,31.446-18.646,31.446-18.646s1.109-1.613,0.605-3.427
	C329.683,244.818,297.027,264.976,294.507,264.875z M309.021,368.99c-0.403,4.334-2.016,8.567-4.636,12.397
	c0,0.101-0.102,0.101-0.102,0.202c-0.302,0.504-0.604,0.906-1.008,1.31c-0.101,0.101-0.201,0.202-0.303,0.302
	c-0.302,0.404-0.705,0.807-1.008,1.21c-0.1,0.101-0.201,0.302-0.402,0.403c-0.303,0.403-0.705,0.705-1.008,1.108
	c-0.101,0.202-0.303,0.303-0.403,0.505c-0.303,0.402-0.706,0.705-1.109,1.008c-0.202,0.201-0.403,0.302-0.504,0.504
	c-0.403,0.302-0.706,0.604-1.109,1.008c-0.201,0.201-0.403,0.402-0.604,0.504c-0.403,0.302-0.706,0.604-1.109,0.906
	c-0.202,0.202-0.504,0.403-0.706,0.504c-0.403,0.303-0.806,0.605-1.209,0.807c-0.302,0.201-0.504,0.403-0.806,0.504
	c-0.403,0.303-0.806,0.504-1.209,0.807c-0.302,0.201-0.605,0.402-0.806,0.504c-0.403,0.201-0.807,0.504-1.209,0.705
	c-0.303,0.202-0.605,0.403-0.907,0.504c-0.403,0.202-0.806,0.504-1.209,0.706c-0.302,0.201-0.706,0.302-1.008,0.504
	c-0.403,0.201-0.807,0.403-1.311,0.604c-0.302,0.202-0.706,0.303-1.108,0.504c-0.403,0.202-0.907,0.403-1.311,0.604
	c-0.403,0.202-0.706,0.303-1.108,0.504c-0.403,0.202-0.907,0.403-1.311,0.505c-0.403,0.201-0.806,0.302-1.209,0.504
	c-0.403,0.201-0.907,0.302-1.31,0.504c-0.403,0.101-0.806,0.302-1.311,0.402c-0.403,0.202-0.907,0.303-1.31,0.504
	c-0.403,0.102-0.907,0.303-1.31,0.403c-0.504,0.101-0.907,0.303-1.411,0.403s-0.907,0.303-1.411,0.403s-0.907,0.201-1.411,0.403
	c-0.504,0.101-1.008,0.201-1.411,0.302c-0.504,0.102-0.907,0.202-1.411,0.303c-0.504,0.101-1.008,0.201-1.512,0.303
	c-0.504,0.101-0.907,0.201-1.411,0.302c-0.504,0.101-1.008,0.202-1.612,0.303c-0.504,0.101-0.907,0.201-1.411,0.201
	c-0.504,0.101-1.109,0.202-1.613,0.202c-0.504,0.101-0.907,0.101-1.411,0.201c-0.605,0.101-1.21,0.101-1.714,0.202
	c-0.403,0-0.907,0.101-1.31,0.101c-0.605,0.101-1.209,0.101-1.915,0.101c-0.403,0-0.806,0.101-1.31,0.101
	c-0.706,0-1.411,0.101-2.117,0.101c-0.403,0-0.706,0-1.109,0c-1.108,0-2.116,0-3.225,0s-2.117,0-3.225,0c-0.403,0-0.706,0-1.109,0
	c-0.706,0-1.411-0.101-2.117-0.101c-0.403,0-0.806-0.101-1.31-0.101c-0.605,0-1.209-0.101-1.915-0.101
	c-0.403,0-0.907-0.101-1.31-0.101c-0.605-0.102-1.21-0.102-1.714-0.202s-0.907-0.101-1.411-0.201
	c-0.504-0.102-1.109-0.102-1.613-0.202s-0.907-0.201-1.411-0.201c-0.504-0.101-1.008-0.202-1.613-0.303
	c-0.504-0.101-0.907-0.201-1.411-0.302c-0.504-0.102-1.008-0.202-1.512-0.303s-0.907-0.201-1.411-0.303
	c-0.504-0.101-1.008-0.201-1.411-0.302c-0.504-0.101-0.907-0.202-1.411-0.403c-0.504-0.101-0.907-0.202-1.411-0.403
	c-0.504-0.101-0.907-0.303-1.411-0.403c-0.403-0.101-0.907-0.302-1.31-0.403c-0.504-0.101-0.907-0.302-1.311-0.504
	c-0.403-0.101-0.806-0.302-1.31-0.402c-0.403-0.202-0.907-0.303-1.311-0.504c-0.403-0.202-0.806-0.303-1.209-0.504
	c-0.403-0.202-0.907-0.403-1.311-0.505c-0.403-0.201-0.806-0.302-1.109-0.504c-0.403-0.201-0.907-0.402-1.31-0.604
	c-0.403-0.201-0.706-0.302-1.109-0.504c-0.403-0.201-0.907-0.403-1.31-0.604c-0.302-0.202-0.706-0.303-1.008-0.504
	c-0.403-0.202-0.807-0.504-1.209-0.706c-0.302-0.201-0.605-0.402-0.907-0.504c-0.403-0.201-0.806-0.504-1.209-0.705
	c-0.302-0.201-0.604-0.403-0.806-0.504c-0.403-0.303-0.807-0.504-1.209-0.807c-0.303-0.201-0.504-0.402-0.807-0.504
	c-0.403-0.303-0.806-0.604-1.209-0.807c-0.201-0.201-0.504-0.402-0.706-0.504c-0.403-0.302-0.806-0.604-1.108-0.906
	c-0.202-0.202-0.403-0.404-0.605-0.504c-0.403-0.303-0.706-0.605-1.108-1.008c-0.202-0.202-0.403-0.303-0.504-0.504
	c-0.403-0.303-0.706-0.706-1.109-1.008c-0.202-0.202-0.302-0.303-0.403-0.505c-0.403-0.403-0.705-0.705-1.008-1.108
	c-0.101-0.102-0.202-0.303-0.403-0.403c-0.303-0.403-0.706-0.806-1.008-1.21c-0.101-0.1-0.201-0.201-0.302-0.302
	c-0.302-0.403-0.706-0.907-1.008-1.31c0-0.102-0.101-0.102-0.101-0.202c-2.621-3.83-4.233-8.063-4.637-12.397l0,0
	c-0.101,0.705-0.101,1.512-0.101,2.218c0,8.567,4.636,16.529,12.397,22.879c1.915,1.612,4.132,3.125,6.451,4.536
	c11.49,6.954,27.314,11.188,44.851,11.188c35.176,0,63.699-17.336,63.699-38.703C309.121,370.401,309.121,369.695,309.021,368.99
	L309.021,368.99z M415.556,266.689c-1.915,1.209-5.343-1.108-5.343-1.108s-35.679-60.575-36.284-62.792
	c-0.604-2.217,1.009-5.14,1.009-5.14l-2.822,1.612c0,0-1.311,1.915-0.907,3.528l36.586,64.505c0,0,0.102,0.101,0.202,0.202
	c0.101,0.101,0.201,0.202,0.303,0.302c0.302,0.302,0.806,0.604,1.41,0.806c0.706,0.302,1.613,0.403,2.521,0.202L415.556,266.689
	L415.556,266.689z M399.631,336.436c-0.202,0-0.403,0-0.605-0.102l2.923,15.824l2.318-0.402l-2.016-16.631
	C401.646,335.932,400.639,336.436,399.631,336.436z M337.141,322.729l10.281,7.66c0-0.102,0-0.202,0-0.303
	c0-1.008,0.504-1.915,1.31-2.419l0,0l-10.28-6.048C338.048,322.022,337.645,322.426,337.141,322.729z M388.745,354.779
	L388.745,354.779c0,0.101-5.745,7.963-18.848,7.66c-13.203-0.303-17.84-10.684-17.84-10.684c0-0.605,0-1.21,0-1.814
	c0-0.201,0-0.403,0-0.605c0-0.402,0-0.806,0-1.209c0-0.201,0-0.504,0-0.705c0-0.403,0-0.706,0.101-1.109
	c0-0.201,0-0.504,0.102-0.705c0-0.303,0.101-0.705,0.101-1.008c0-0.201,0.101-0.504,0.101-0.706c0-0.302,0.101-0.705,0.101-1.008
	c0-0.201,0.101-0.504,0.101-0.706c0-0.302,0.102-0.705,0.202-1.008c0-0.201,0.101-0.504,0.101-0.705
	c0.101-0.402,0.101-0.705,0.202-1.108c0-0.202,0.101-0.403,0.101-0.604c0.101-0.403,0.101-0.706,0.201-1.109
	c0-0.201,0.101-0.402,0.101-0.604c0.102-0.403,0.202-0.806,0.303-1.21c0-0.1,0.101-0.302,0.101-0.402
	c0.101-0.504,0.202-1.008,0.403-1.411v-0.101c0.706-2.722,1.512-5.342,2.419-7.66l0,0c0.101-0.403,0.303-0.807,0.403-1.21l0,0
	l-4.334,3.931c-0.403-0.705-1.108-1.209-2.016-1.41l4.636-7.66c0.605,1.713,2.218,2.922,4.032,3.023l-2.218,2.016
	c0.907,0.807,11.087,9.776,25.298,3.629c0.807,0.402,1.714,0.705,2.722,0.705c2.419,9.877,3.226,21.166,3.527,24.693v0.101
	c0,0.303,0,0.604,0,0.706C388.745,354.578,388.745,354.678,388.745,354.779C388.745,354.678,388.745,354.678,388.745,354.779z
	 M372.72,351.957c-0.202-0.807-1.108-14.614-1.108-14.614s-8.567-0.604-13.607-4.133c0,0-2.016,9.878-1.914,14.614
	C356.09,347.824,360.524,354.376,372.72,351.957z M387.233,328.574l8.97,4.334c0-1.008,0.505-1.916,1.311-2.52l-6.854-5.746
	C390.357,326.457,389.048,327.969,387.233,328.574z"></path>
<path id="color_x5F_8" fill="#d0e7df" d="M308.617,223.854c0-2.016,1.21-3.528,2.621-3.225c1.411,0.302,2.62,2.217,2.62,4.334
	c0,2.116-1.209,3.527-2.62,3.225C309.727,227.885,308.517,225.97,308.617,223.854z M222.04,379.271l5.14-3.226l-9.877-5.745
	l-5.04,3.527L222.04,379.271z M106.736,279.086L106.736,279.086L106.736,279.086L106.736,279.086z M155.518,279.489l-0.101,0.101
	c-0.101,0.201-0.302,0.302-0.504,0.504l-0.101,0.101c-0.201,0.202-0.504,0.403-0.705,0.504l-0.101,0.101
	c-0.202,0.101-0.504,0.302-0.706,0.403c0,0-0.101,0-0.101,0.101l0,0c-0.101,0-0.202,0.101-0.303,0.101
	c-0.201,0.101-0.403,0.202-0.604,0.302c-0.101,0-0.101,0.101-0.202,0.101l0,0c-0.101,0-0.202,0.101-0.202,0.101
	c-0.101,0-0.202,0.101-0.302,0.101l0,0c-0.202,0.101-0.403,0.202-0.706,0.302h-0.101c-0.403,0.101-0.907,0.302-1.411,0.403
	c0,0,0,0-0.101,0c-0.504,0.101-1.008,0.302-1.512,0.403l0,0c-1.108,0.302-2.217,0.504-3.427,0.706c0,0,0,0-0.101,0
	c-0.605,0.101-1.209,0.202-1.814,0.302c-0.101,0-0.101,0-0.202,0c-0.604,0.101-1.209,0.202-1.814,0.202c-0.101,0-0.202,0-0.302,0
	c-0.605,0.101-1.21,0.101-1.915,0.202c-0.101,0-0.202,0-0.303,0c-0.604,0-1.31,0.101-1.915,0.101c-0.101,0-0.201,0-0.302,0
	c-0.706,0-1.411,0.101-2.016,0.101c-0.101,0-0.101,0-0.202,0c-0.706,0-1.512,0-2.217,0s-1.411,0-2.217,0c-0.101,0-0.101,0-0.202,0
	c-0.706,0-1.311,0-2.016-0.101c-0.101,0-0.201,0-0.302,0c-0.604,0-1.31-0.101-1.915-0.101c-0.101,0-0.202,0-0.302,0
	c-0.604-0.101-1.209-0.101-1.814-0.202c-0.101,0-0.202,0-0.202,0c-0.605-0.101-1.209-0.101-1.814-0.202h-0.101
	c-1.311-0.202-2.52-0.403-3.628-0.604c0,0,0,0-0.101,0c-0.604-0.101-1.108-0.202-1.612-0.403H114.9
	c-0.504-0.101-1.008-0.302-1.512-0.403h-0.101c-0.504-0.101-0.907-0.303-1.411-0.403l0,0c-0.202-0.101-0.302-0.101-0.504-0.202l0,0
	c-0.202-0.101-0.403-0.101-0.605-0.202c-0.101,0-0.202-0.101-0.302-0.101c-0.302-0.101-0.605-0.303-0.907-0.403
	c-0.101,0-0.101,0-0.202-0.101c-0.706-0.303-1.31-0.706-1.713-1.109l0,0c-0.202-0.202-0.403-0.403-0.504-0.504l0,0l0,0
	c0,0,0-0.101-0.101-0.101c-0.101-0.201-0.202-0.302-0.302-0.504c0,0,0,0,0-0.101l2.52,9.877l3.023,0.907
	c0,0,17.336,5.241,38.603-0.403l3.024-1.31l1.915-8.567l0.101-0.504l0,0v0.101C155.72,279.187,155.619,279.389,155.518,279.489z
	 M379.775,323.434c0-1.814,0.906-3.427,2.217-4.435c-0.807-1.714-1.713-3.124-2.62-4.233l0,0l0,0c-0.303,0-0.605,0.101-0.907,0.101
	h-0.101c-0.303,0-0.504,0.101-0.807,0.101c-0.101,0-0.202,0-0.303,0c-0.201,0-0.403,0-0.604,0c-0.101,0-0.201,0-0.303,0
	c-0.201,0-0.402,0-0.604,0c-0.101,0-0.201,0-0.302,0c-0.202,0-0.403,0-0.504,0c-0.102,0-0.202,0-0.303,0c-0.201,0-0.303,0-0.504,0
	c-0.101,0-0.202,0-0.303,0c-0.201,0-0.302,0-0.504,0c-0.101,0-0.201,0-0.302,0c-0.202,0-0.303,0-0.403,0s-0.202,0-0.303,0
	s-0.302,0-0.403,0c-0.101,0-0.201,0-0.302,0s-0.303,0-0.403,0s-0.101,0-0.202,0c-0.101,0-0.201,0-0.302,0s-0.101,0-0.202,0
	c-0.101,0-0.201,0-0.302,0s-0.101,0-0.202,0c-0.101,0-0.201,0-0.201,0h-0.101c-0.101,0-0.101,0-0.202,0h-0.101h-0.101l0,0h-0.101
	l0,0l0,0c0,0,0,0-0.102,0h-0.101h-0.101h-0.101c0,0,0,0-0.101,0c-0.202-0.101-0.504-0.101-0.807-0.201l0,0
	c-0.101,0-0.201-0.101-0.303-0.101h-0.101c-0.101,0-0.201-0.101-0.403-0.101h-0.101c-0.604-0.202-1.209-0.403-1.915-0.706h-0.101
	c-0.101-0.101-0.303-0.101-0.403-0.202c-0.101,0-0.101,0-0.201-0.1c-0.102-0.102-0.303-0.102-0.403-0.202
	c-0.101,0-0.101-0.101-0.202-0.101c-0.101-0.102-0.302-0.102-0.504-0.201c-0.201,0.402-0.504,0.806-0.806,1.41
	c1.512,0.807,2.52,2.42,2.52,4.133c0,2.621-2.116,4.838-4.838,4.838c-0.101,0-0.303,0-0.403,0l-2.218,2.016
	c0.907,0.807,11.087,9.777,25.299,3.629C380.884,327.264,379.775,325.449,379.775,323.434z M241.492,399.228l-52.612-30.338v-6.249
	l0,0l59.769-34.57c-1.109,0-2.117,0-3.226,0c-35.175,0-63.699,17.336-63.699,38.703c0,0.705,0,1.512,0.101,2.217
	c0.403,4.334,2.016,8.567,4.636,12.397c0,0.101,0.101,0.101,0.101,0.202c0.302,0.504,0.604,0.906,1.008,1.31
	c0.101,0.101,0.202,0.202,0.302,0.302c0.303,0.404,0.706,0.807,1.008,1.21c0.101,0.101,0.202,0.302,0.403,0.403
	c0.302,0.403,0.706,0.705,1.008,1.108c0.101,0.202,0.302,0.303,0.403,0.505c0.302,0.402,0.706,0.705,1.109,1.008
	c0.201,0.201,0.403,0.302,0.504,0.504c0.403,0.302,0.705,0.604,1.108,1.008c0.202,0.201,0.403,0.402,0.605,0.504
	c0.403,0.302,0.706,0.604,1.108,0.906c0.202,0.202,0.504,0.403,0.706,0.504c0.403,0.303,0.807,0.605,1.209,0.807
	c0.302,0.201,0.504,0.403,0.807,0.504c0.403,0.303,0.806,0.504,1.209,0.807c0.302,0.201,0.604,0.402,0.806,0.504
	c0.403,0.201,0.806,0.504,1.209,0.705c0.302,0.202,0.604,0.403,0.907,0.504c0.403,0.202,0.806,0.504,1.209,0.706
	c0.302,0.201,0.706,0.302,1.008,0.504c0.403,0.201,0.806,0.403,1.31,0.604c0.303,0.202,0.706,0.303,1.109,0.504
	c0.403,0.202,0.907,0.403,1.31,0.604c0.403,0.202,0.706,0.303,1.109,0.504c0.403,0.202,0.907,0.403,1.31,0.505
	c0.403,0.201,0.807,0.302,1.209,0.504c0.403,0.201,0.907,0.302,1.311,0.504c0.403,0.101,0.806,0.302,1.31,0.402
	c0.403,0.202,0.907,0.303,1.311,0.504c0.403,0.102,0.907,0.303,1.31,0.403c0.504,0.101,0.907,0.303,1.411,0.403
	s0.907,0.303,1.411,0.403s0.907,0.201,1.411,0.403c0.504,0.101,1.008,0.201,1.411,0.302c0.504,0.102,0.907,0.202,1.411,0.303
	s1.008,0.201,1.512,0.303c0.504,0.101,0.907,0.201,1.411,0.302s1.008,0.202,1.613,0.303c0.504,0.101,0.907,0.201,1.411,0.201
	c0.504,0.101,1.108,0.202,1.612,0.202c0.504,0.101,0.907,0.101,1.411,0.201c0.605,0.101,1.209,0.101,1.713,0.202
	c0.403,0,0.907,0.101,1.311,0.101c0.604,0.101,1.209,0.101,1.915,0.101c0.403,0,0.806,0.101,1.31,0.101
	c0.706,0,1.411,0.101,2.117,0.101c0.403,0,0.706,0,1.108,0c1.109,0,2.117,0,3.226,0c1.108,0,2.117,0,3.225,0
	c0.403,0,0.706,0,1.109,0c0.706,0,1.411-0.101,2.116-0.101c0.403,0,0.807-0.101,1.311-0.101c0.604,0,1.209-0.101,1.915-0.101
	c0.403,0,0.907-0.101,1.31-0.101c0.605-0.102,1.209-0.102,1.713-0.202s0.907-0.101,1.411-0.201c0.504-0.102,1.109-0.102,1.613-0.202
	s0.907-0.201,1.411-0.201c0.504-0.101,1.008-0.202,1.612-0.303c0.504-0.101,0.907-0.201,1.411-0.302
	c0.504-0.102,1.008-0.202,1.512-0.303c0.504-0.101,0.907-0.201,1.411-0.303c0.504-0.101,1.008-0.201,1.411-0.302
	c0.504-0.101,0.907-0.202,1.411-0.403c0.504-0.101,0.907-0.202,1.411-0.403c0.504-0.101,0.907-0.303,1.411-0.403
	c0.403-0.101,0.907-0.302,1.311-0.403c0.504-0.101,0.907-0.302,1.31-0.504c0.403-0.101,0.807-0.302,1.311-0.402
	c0.403-0.202,0.907-0.303,1.31-0.504c0.403-0.202,0.806-0.303,1.209-0.504c0.403-0.202,0.907-0.403,1.31-0.505
	c0.403-0.201,0.807-0.302,1.109-0.504c0.403-0.201,0.907-0.402,1.31-0.604c0.403-0.201,0.706-0.302,1.109-0.504
	c0.403-0.201,0.907-0.403,1.31-0.604c0.303-0.202,0.706-0.303,1.008-0.504c0.403-0.202,0.806-0.504,1.209-0.706
	c0.302-0.201,0.604-0.402,0.907-0.504c0.403-0.201,0.807-0.504,1.209-0.705c0.303-0.201,0.605-0.403,0.807-0.504
	c0.403-0.303,0.806-0.504,1.209-0.807c0.302-0.201,0.504-0.402,0.806-0.504c0.403-0.303,0.806-0.604,1.209-0.807
	c0.202-0.201,0.504-0.402,0.706-0.504c0.403-0.302,0.806-0.604,1.109-0.906c0.202-0.202,0.403-0.404,0.604-0.504
	c0.403-0.303,0.706-0.605,1.109-1.008c0.202-0.202,0.403-0.303,0.504-0.504c0.403-0.303,0.706-0.706,1.108-1.008
	c0.202-0.202,0.303-0.303,0.403-0.505c0.403-0.403,0.705-0.705,1.008-1.108c0.102-0.102,0.201-0.303,0.403-0.403
	c0.302-0.403,0.706-0.806,1.008-1.21c0.101-0.1,0.202-0.201,0.302-0.302c0.303-0.403,0.706-0.907,1.009-1.31
	c0-0.102,0.101-0.102,0.101-0.202c2.62-3.83,4.233-8.063,4.637-12.397c0.101-0.705,0.101-1.512,0.101-2.217
	c0-2.318-0.303-4.536-1.008-6.754L241.492,399.228z M276.466,251.167c4.031,3.528,15.824,13.606,18.041,13.708
	c2.621,0.101,35.176-20.158,35.176-20.158l-24.392-10.18L276.466,251.167z"></path>
<path id="color_x5F_7" fill="#75d9d3" d="M159.55,216.093c-7.458,9.474-21.065,8.769-26.709,21.468
	c-5.645,12.699,0.403,27.314,0.403,27.314s6.148-3.226,9.273-13.909c3.124-10.684,9.676-15.622,13.606-9.575
	c3.83,6.148,0.907,14.514-4.939,21.065c-2.822,3.125-6.047,6.551-8.567,9.776c-3.427-0.504-7.257-0.806-11.389-0.806
	c-3.326,0-6.451,0.202-9.374,0.504c-1.512-2.52-3.83-5.04-7.257-7.055c-10.381-5.846-9.676-5.241-16.731-4.838
	s-8.668-4.435-6.753-7.761c1.915-3.427-0.706-2.822-6.249-8.063c-5.543-5.241-8.466-14.816-2.419-17.437
	c6.148-2.621,13.204-3.628,16.63,6.551s16.731,16.63,16.731,16.63s-7.861-13.204-8.164-21.267
	c-0.202-8.063,3.326-21.871,9.676-26.508c6.451-4.636,22.073-12.699,18.646-31.446c-3.427-18.848,13.103-37.594,24.593-25.802
	c11.49,11.792-2.217,36.385-13.103,44.75c-10.885,8.365-11.792,23.686-11.792,23.686s3.628-12.901,14.917-13.607
	C162.069,199.16,167.008,206.619,159.55,216.093z M128.809,276.97c-12.7,0.604-16.933,4.938-16.933,4.938l-0.403,0.302
	c0.202,0.101,0.302,0.101,0.504,0.202l0,0c0.403,0.101,0.907,0.302,1.411,0.403h0.101c0.504,0.101,1.008,0.302,1.512,0.403h0.101
	c0.504,0.101,1.109,0.201,1.613,0.403c0,0,0,0,0.101,0c1.109,0.202,2.318,0.403,3.628,0.605h0.101
	c0.604,0.101,1.209,0.202,1.814,0.202c0.101,0,0.202,0,0.202,0c0.604,0.101,1.209,0.101,1.814,0.201c0.101,0,0.202,0,0.303,0
	c0.604,0,1.31,0.101,1.915,0.101c0.101,0,0.201,0,0.302,0c0.706,0,1.31,0.101,2.016,0.101c0.101,0,0.101,0,0.202,0
	c0.706,0,1.411,0,2.217,0c0.706,0,1.512,0,2.217,0c0.101,0,0.101,0,0.202,0c0.706,0,1.411,0,2.016-0.101c0.101,0,0.201,0,0.302,0
	c0.706,0,1.31-0.101,1.915-0.101c0.101,0,0.202,0,0.302,0c0.605-0.101,1.209-0.101,1.915-0.201c0.101,0,0.202,0,0.302,0
	c0.605-0.101,1.209-0.101,1.814-0.202c0.101,0,0.101,0,0.202,0c0.604-0.101,1.209-0.202,1.814-0.303c0,0,0,0,0.101,0
	c1.209-0.201,2.418-0.403,3.427-0.705l0,0c0.504-0.101,1.008-0.303,1.512-0.403c0,0,0,0,0.101,0
	c0.504-0.101,0.907-0.302,1.411-0.403h0.101c0.201-0.101,0.504-0.202,0.706-0.302C150.378,280.8,141.408,276.365,128.809,276.97z"></path>
<path id="color_x5F_6" fill="#ffffff" d="M443.07,239.476c-0.302,1.008-0.604,2.116-0.906,3.326l-27.919,16.429l-34.067-56.543
	l36.486-20.359l27.112,47.371c-4.133-1.31-8.567-2.923-11.49-4.435c0,0-3.326-5.947-4.334-6.854
	c-1.008-0.907-8.466-5.241-9.978-5.443c-1.513-0.202-1.714,0.202-1.814,0.504s4.435,5.745,4.435,5.745s-5.645-2.016-6.048-1.713
	c-0.402,0.302-0.302,1.209-0.201,1.209s7.56,5.04,8.265,5.745c0.706,0.706,0.807,0.706,0.706,0.806
	c-0.102,0.101-3.226,0.302-3.729,0.706c-0.504,0.403-0.706,1.411-0.202,1.512c0.505,0.101,1.714-0.202,2.318-0.202
	c0.605,0,2.016,0.907,3.326,1.411c1.21,0.504,4.334,0.202,4.334,0.202S439.039,236.855,443.07,239.476z M379.17,309.021
	c1.714-1.813,1.512-4.031,1.512-4.031c-1.008-5.947-16.73-12.296-20.964-4.838c-1.814,3.226,1.612,8.265,5.946,10.18
	C369.897,312.145,376.65,311.742,379.17,309.021z M358.004,333.21c0,0-2.016,9.878-1.914,14.614c0,0,4.435,6.552,16.63,4.133
	c-0.201-0.807-1.108-14.614-1.108-14.614S362.943,336.738,358.004,333.21z M361.129,181.421l-0.201-87.989
	c0-3.527-1.714-6.45-4.133-8.265c-2.016-0.201-4.133,0.202-6.148,1.311l-111.473,64.404c-3.225,1.814-5.14,5.241-5.14,8.87v87.989
	c0,3.528,1.713,6.451,4.132,8.265c2.016,0.202,4.132-0.202,6.148-1.31l111.574-64.505
	C359.214,188.477,361.129,185.05,361.129,181.421z M314.362,345.002l-43.44-24.995l-67.126,39.106l43.44,24.996L314.362,345.002z"></path>
<path id="color_x5F_5" fill="#ffd2bb" d="M455.267,225.97c0.302-1.814-0.706-4.334-0.706-4.334s-3.628,2.822-6.047-4.636
	c-2.419-7.358,1.108-14.211,1.108-14.211s1.008,0.907,2.318,0.403c0,0-0.807,4.939,1.108,6.955c0,0-0.101-3.427,2.016-3.125
	c2.117,0.202,2.52,6.047,1.311,7.358c-1.311,1.31-2.419,0.604-2.419,0.604s2.116,3.226,4.637,4.435
	c2.116,1.008,5.644,1.209,6.954,1.31c-0.706,2.217-0.706,5.342-0.706,5.342C460.608,227.18,455.267,225.97,455.267,225.97z
	 M429.363,229.095c0,0,9.676,7.761,13.707,10.381l0,0c0.102-0.303,0.202-0.504,0.202-0.807l0,0c0.101-0.202,0.101-0.504,0.201-0.706
	v-0.101c0.102-0.202,0.102-0.403,0.202-0.604c0-0.101,0-0.101,0.101-0.101c0.101-0.202,0.101-0.302,0.201-0.504
	c0-0.101,0-0.101,0.102-0.202c0-0.101,0.101-0.302,0.101-0.403c0-0.101,0.101-0.201,0.101-0.201c0-0.101,0.101-0.202,0.101-0.303
	c0-0.101,0.101-0.201,0.101-0.201c0-0.101,0.102-0.101,0.102-0.202c0.101-0.101,0.101-0.202,0.201-0.302
	c0.101-0.202,0.303-0.403,0.403-0.605c0-0.101,0.101-0.101,0.101-0.202c0.101-0.101,0.202-0.202,0.303-0.403
	c0.101-0.101,0.101-0.101,0.201-0.201c0.101-0.101,0.202-0.202,0.303-0.303c0.101-0.101,0.101-0.101,0.201-0.201
	c0.101-0.101,0.202-0.202,0.303-0.303c0.101,0,0.101-0.101,0.201-0.101c0.101-0.101,0.202-0.202,0.303-0.302
	c0.101,0,0.101-0.101,0.201-0.101c0.102-0.101,0.303-0.202,0.403-0.202l0.101-0.101c0.102-0.101,0.303-0.202,0.403-0.202h0.101
	c0.202-0.101,0.403-0.202,0.504-0.302l0,0c-1.612-0.504-3.325-1.008-5.14-1.613c-4.133-1.31-8.567-2.923-11.49-4.435
	L429.363,229.095z M427.952,218.411c-1.008-0.907-8.466-5.241-9.978-5.443c-1.513-0.202-1.714,0.202-1.814,0.504
	s4.435,5.745,4.435,5.745s-5.645-2.016-6.048-1.713c-0.402,0.302-0.302,1.209-0.201,1.209s7.56,5.04,8.265,5.745
	c0.706,0.706,0.807,0.706,0.706,0.807c-0.102,0.101-3.226,0.302-3.729,0.706c-0.504,0.403-0.706,1.411-0.202,1.512
	c0.504,0.101,1.714-0.202,2.318-0.202c0.605,0,2.016,0.907,3.326,1.411c1.21,0.504,4.334,0.202,4.334,0.202l2.923-3.83
	C432.286,225.265,428.96,219.318,427.952,218.411z M453.049,315.875L453.049,315.875c-0.907-0.102-1.713-0.202-2.52-0.303h-0.101
	c-0.403,0-0.706-0.102-1.008-0.102l0,0c-0.403-0.1-0.706-0.1-1.009-0.201c0,0,0,0-0.101,0c-0.302,0-0.604-0.101-0.806-0.101
	c-0.102,0-0.102,0-0.202,0c-0.302,0-0.504-0.101-0.806-0.101l0,0l-1.311,14.614c0,0,0.302,20.157-1.915,24.693
	c-1.108,2.218-3.83,4.233-6.45,5.846l0,0c0.302,1.008-0.102,1.915,2.317,1.915s6.451-0.907,7.257-1.613
	c0.907-0.705,2.117-1.008,2.521-0.806l0,0c0-2.016,0-4.132,0.402-5.342c1.008-3.226,3.629-11.49,4.536-20.46
	c0.604-5.947,1.31-13.305,1.814-17.639l0,0C454.863,316.076,453.956,315.975,453.049,315.875z M465.144,316.379L465.144,316.379
	c-1.008,0.1-2.116,0.1-3.326,0.1l0,0c-1.209,0-2.419-0.1-3.628-0.1l0,0c-0.403,0-0.807-0.102-1.21-0.102l0,0
	c2.016,10.482,7.56,39.106,7.56,39.309c0,0.201-0.706,1.008-1.814,2.016l0,0c0.604,0.705,1.915,2.217,3.326,1.612
	c1.814-0.706,3.628-1.915,4.233-2.016c0.604-0.101,0.201-2.017,0.907-2.218c0.101,0,0.402-0.101,0.806-0.201l0,0
	c-0.806-1.411-1.512-3.023-2.116-4.939c-1.612-5.14-3.023-25.197-3.629-33.563l0,0C465.85,316.277,465.547,316.379,465.144,316.379z
	"></path>
<path id="color_x5F_4" fill="#00cec9" d="M438.535,258.828l-5.342-2.822l6.854-4.132
	C439.14,255.804,438.535,258.828,438.535,258.828z M565.832,309.727L268,483.688L34.167,349.135l81.236-46.564l2.822,11.288h27.616
	l4.939-24.391l3.023-1.31l1.915-8.567l64.909-37.191v21.166c0,6.35,4.838,10.986,10.482,11.49c2.217,0.202,4.636-0.202,6.854-1.512
	l37.897-21.872l-0.706,0.403l16.126,14.917c0,0,3.225,1.008,6.35,0c3.225-1.008,31.447-18.646,31.447-18.646
	s1.108-1.612,0.604-3.427l-24.392-10.18l57.854-33.361c2.52-1.411,4.233-3.729,5.141-6.35l5.745,3.326l-1.915,1.109
	c0,0-1.311,1.915-0.907,3.528l36.586,64.505c0,0,0.102,0.101,0.202,0.201c0.101,0.101,0.201,0.202,0.303,0.303
	c0.302,0.302,0.806,0.604,1.41,0.806c0.706,0.302,1.613,0.403,2.521,0.202l3.325-2.016l12.801-7.861c0,0,8.466,9.374,11.288,10.482
	c2.822,1.109,7.056-3.83,7.056-3.83l-2.218,49.185c0,0,0.807,0.202,2.117,0.404l-1.311,14.613c0,0,0.303,20.158-1.915,24.693
	c-1.108,2.218-3.83,4.234-6.45,5.846c-2.521,1.513-5.04,2.723-6.249,3.326c-0.202,0.102-0.303,0.102-0.403,0.202
	c-1.612,0.907-1.915,1.813,0,2.419c1.915,0.604,8.063,1.109,9.575,0.504c1.512-0.604,3.124-2.217,3.931-2.217
	c0.705,0,1.311,1.813,1.311,1.813l4.435-0.202c0,0,0,0,0-0.1c0,0,0,0,0-0.102c0,0,0-0.101,0-0.201c0-0.102,0-0.102,0-0.201v-0.102
	c0-0.402-0.101-1.108-0.202-1.814l0,0c-0.101-0.806-0.101-1.713-0.201-2.62v-0.101c0-0.403,0-0.807,0-1.109
	c0-2.016,0-4.132,0.403-5.342c1.008-3.225,3.628-11.489,4.535-20.46c0.604-5.946,1.311-13.304,1.814-17.638
	c0.403,0,0.705,0.101,1.108,0.101c2.016,10.481,7.56,39.106,7.56,39.308s-0.706,1.008-1.814,2.016
	c-0.201,0.202-0.504,0.504-0.705,0.706l0,0c-0.303,0.202-0.504,0.504-0.807,0.706l0,0c-0.303,0.201-0.504,0.402-0.807,0.705l0,0
	c-0.302,0.201-0.604,0.402-0.806,0.604c-2.419,1.612-6.451,1.311-5.443,2.521c1.008,1.209,6.249,1.914,8.467,1.914
	c2.217,0,2.822-0.906,4.535-2.822c1.613-1.914,2.419-2.116,3.629-1.914c1.209,0.1,1.008,1.209,1.209,1.209
	c0.202,0,4.133-0.907,4.133-0.907s0,0-0.101-0.101l0,0c-0.403-0.403-2.218-2.419-3.932-5.443c-0.806-1.41-1.512-3.023-2.116-4.938
	c-1.612-5.141-3.023-25.197-3.628-33.563c0.604-0.101,1.108-0.202,1.612-0.302c0,0-0.403-9.072,2.218-13.809
	c2.721-4.737,5.24-13.304,2.016-21.872c-3.125-8.567-4.536-6.35-4.032-11.994c0.303-3.729,2.521-8.164,4.334-13.002L565.832,309.727
	z M326.256,344.398l-52.814-30.54l-24.693,14.313c-1.109,0-2.117,0-3.225,0c-35.176,0-63.699,17.335-63.699,38.703
	c0,0.706,0,1.512,0.101,2.218c-0.101,0.705-0.101,1.512-0.101,2.217c0,8.567,4.636,16.529,12.397,22.879l-16.026,9.777
	c0,0-6.047,3.124-10.381,0l-55.535-33.563c0,0-5.846-6.552-1.613-11.188l141.811-81.438c0,0,10.18-6.45,6.753-16.429l-8.97,5.141
	v3.527l-146.044,84.26c0,0-8.164,8.566,0,20.359l63.598,36.99c0,0,5.04,3.124,10.482,0.705c4.435-2.016,17.537-10.381,22.375-13.506
	c11.49,6.954,27.314,11.188,44.852,11.188c35.175,0,63.699-17.336,63.699-38.703c0-0.705,0-1.512-0.102-2.217l0,0
	c0.102-0.706,0.102-1.512,0.102-2.218c0-2.318-0.303-4.536-1.008-6.753l18.041-10.684V344.398L326.256,344.398z M409.508,356.795
	c0.201-2.217-1.814-4.133-3.226-4.535c-1.411-0.403-2.016-0.403-2.016-0.403l-2.016-16.63c0.504-0.605,0.807-1.311,0.807-2.117
	c0-1.915-1.513-3.427-3.427-3.427c-0.807,0-1.513,0.302-2.117,0.706l-6.854-5.746c0.101-0.402,0.101-0.806,0.101-1.209
	c0-3.023-2.52-5.543-5.543-5.543c-1.311,0-2.419,0.402-3.326,1.108c-0.807-1.714-1.714-3.124-2.621-4.233l0,0l0,0
	c4.436-0.705,8.567-2.822,8.77-8.668c0.504-16.63-13.103-20.057-16.731-20.259v-5.14c1.411-0.202,2.419-1.31,2.419-2.721
	c0-1.512-1.21-2.721-2.722-2.721s-2.721,1.209-2.721,2.721c0,1.411,1.108,2.52,2.419,2.721v5.241
	c-2.822,0.202-12.196,2.318-15.119,13.103c-1.915,6.955,3.125,11.086,7.56,13.304c-0.201,0.403-0.504,0.806-0.807,1.411
	c-0.705-0.403-1.512-0.605-2.317-0.605c-2.621,0-4.838,2.117-4.838,4.838c0,0.605,0.101,1.21,0.302,1.714l-4.636,7.66
	c-0.202,0-0.303-0.101-0.504-0.101c-0.605,0-1.109,0.201-1.613,0.504l0,0l-10.28-6.047c0.807-0.908,1.21-2.117,0.907-3.73
	c-0.303-2.418-2.722-4.736-6.652-3.325l3.326,3.729v1.914l-1.814,0.404l-4.334-3.932c0,0-1.209,2.822,0,4.939
	c1.21,2.116,4.435,1.813,4.435,1.813s1.109,0.202,2.722-0.706l10.28,7.66c0.102,1.512,1.411,2.621,2.923,2.621
	c1.613,0,2.923-1.311,2.923-2.923c0-0.504-0.201-1.008-0.402-1.411l4.334-3.931c-0.102,0.403-0.303,0.806-0.403,1.21l0,0
	c-0.907,2.317-1.714,4.938-2.419,7.659v0.101c-0.101,0.504-0.202,1.008-0.403,1.412c0,0.1-0.101,0.302-0.101,0.402
	c-0.102,0.403-0.202,0.807-0.303,1.209c0,0.202-0.101,0.404-0.101,0.605c-0.101,0.403-0.101,0.705-0.202,1.109
	c0,0.201-0.101,0.402-0.101,0.604c-0.101,0.303-0.101,0.706-0.201,1.109c0,0.201-0.101,0.504-0.101,0.705
	c-0.102,0.303-0.102,0.706-0.202,1.008c0,0.202-0.101,0.504-0.101,0.706c0,0.302-0.101,0.706-0.101,1.008
	c0,0.202-0.101,0.504-0.101,0.706c0,0.302-0.102,0.705-0.102,1.008c0,0.201,0,0.504-0.101,0.705c0,0.403,0,0.705-0.101,1.109
	c0,0.201,0,0.504,0,0.705c0,0.402,0,0.807,0,1.209c0,0.201,0,0.403,0,0.605c0,0.604,0,1.209,0,1.813c0,0,4.737,10.382,17.84,10.685
	c13.203,0.302,18.848-7.66,18.848-7.66s0,0,0-0.102c0,0,0,0,0-0.101v-0.101c0-0.201,0-0.403,0-0.705v-0.102
	c-0.202-3.527-1.109-14.816-3.528-24.693c0,0,0,0,0.102,0c0.705,0,1.411-0.101,2.016-0.402l8.97,4.333v0.101
	c0,1.613,1.21,3.023,2.722,3.326l2.923,15.824c0,0-1.713,1.008-2.217,2.721c-0.706,2.621,0.604,5.947,2.923,6.451
	c2.317,0.504,2.317,0.504,2.317,0.504l-1.813-5.342l0.806-1.311l1.814,0.202l1.612,5.039
	C407.392,360.625,409.307,358.912,409.508,356.795z M305.19,234.537l-29.43,17.034l0.604-0.403L305.19,234.537L305.19,234.537z
	 M181.925,368.99L181.925,368.99L181.925,368.99L181.925,368.99z"></path>
<path id="color_x5F_3" fill="#000000" d="M475.827,360.322c0,0-3.931,0.907-4.132,0.907c-0.202,0,0-1.008-1.21-1.21
	c-1.209-0.1-1.915,0-3.628,1.916c-1.613,1.914-2.218,2.822-4.536,2.822c-2.217,0-7.559-0.706-8.466-1.916
	c-1.008-1.209,3.023-1.008,5.442-2.52c0.303-0.201,0.604-0.402,0.807-0.604l0,0c0.302-0.202,0.504-0.403,0.806-0.706l0,0
	c0.303-0.201,0.504-0.504,0.807-0.705l0,0c0.303-0.201,0.504-0.504,0.705-0.705l0,0c0.605,0.705,1.915,2.217,3.326,1.612
	c1.814-0.706,3.629-1.915,4.233-2.016s0.202-2.017,0.907-2.218c0.101,0,0.403-0.101,0.807-0.201l0,0
	C473.509,357.803,475.323,359.818,475.827,360.322C475.727,360.222,475.727,360.222,475.827,360.322L475.827,360.322z
	 M449.421,365.967c0,0,0-0.101,0-0.201c0-0.102,0-0.102,0-0.202v-0.101c0-0.403-0.102-1.109-0.202-1.814l0,0
	c-0.101-0.807-0.101-1.713-0.201-2.621v-0.1c0-0.404,0-0.807,0-1.109l0,0c-0.403-0.101-1.613,0.102-2.52,0.807
	c-0.907,0.705-4.939,1.612-7.258,1.612c-2.419,0-2.016-0.907-2.317-1.915l0,0c-2.521,1.512-5.04,2.722-6.249,3.326
	c-0.202,0.102-0.303,0.102-0.403,0.201c-1.612,0.908-1.915,1.814,0,2.42c1.915,0.604,8.063,1.108,9.575,0.504
	c1.512-0.605,3.124-2.218,3.931-2.218c0.705,0,1.311,1.813,1.311,1.813l4.435-0.201
	C449.421,366.067,449.421,366.067,449.421,365.967L449.421,365.967z M371.006,275.256c-1.512,0-2.721,1.209-2.721,2.721
	c0,1.411,1.108,2.52,2.419,2.721v5.241v0.907h0.705v-0.907v-5.14c1.411-0.202,2.419-1.311,2.419-2.722
	C373.828,276.466,372.519,275.256,371.006,275.256z"></path>
<path id="color_x5F_2" fill="#0c1836" d="M449.018,231.312c-0.202,0.101-0.403,0.202-0.504,0.302h-0.102
	c-0.101,0.101-0.302,0.202-0.402,0.202l-0.102,0.101c-0.101,0.101-0.302,0.202-0.402,0.202c-0.102,0-0.102,0.101-0.202,0.101
	c-0.101,0.101-0.201,0.202-0.302,0.302c-0.102,0-0.102,0.101-0.202,0.101c-0.101,0.101-0.201,0.202-0.302,0.303
	c-0.102,0.101-0.102,0.101-0.202,0.201c-0.101,0.101-0.201,0.202-0.302,0.303c-0.102,0.101-0.102,0.101-0.202,0.201
	c-0.101,0.101-0.201,0.202-0.303,0.403c0,0.101-0.101,0.101-0.101,0.202c-0.101,0.202-0.302,0.403-0.403,0.605
	c-0.101,0.101-0.101,0.201-0.201,0.302c0,0.101-0.101,0.101-0.101,0.202c0,0.101-0.101,0.201-0.101,0.201
	c0,0.101-0.102,0.202-0.102,0.303c0,0.101-0.101,0.101-0.101,0.201c0,0.101-0.101,0.202-0.101,0.403c0,0.101,0,0.101-0.101,0.202
	c-0.102,0.202-0.102,0.302-0.202,0.504c0,0.101,0,0.101-0.101,0.101c-0.101,0.201-0.101,0.403-0.201,0.604v0.101
	c-0.102,0.202-0.102,0.403-0.202,0.706l0,0c-0.101,0.202-0.101,0.504-0.201,0.807l0,0c-0.303,1.008-0.604,2.117-0.907,3.326
	c-0.807,2.923-1.512,6.249-2.117,9.071c-0.906,3.931-1.512,6.955-1.512,6.955l-5.342-2.822l0,0l-4.736,2.822
	c0,0,8.466,9.374,11.288,10.482c2.822,1.109,7.055-3.83,7.055-3.83l-2.217,49.186c0,0,0.807,0.202,2.116,0.403l0,0
	c0.202,0,0.504,0.101,0.807,0.101c0.101,0,0.101,0,0.201,0c0.303,0,0.504,0.101,0.807,0.101c0,0,0,0,0.101,0
	c0.303,0,0.706,0.102,1.008,0.201l0,0c0.303,0,0.706,0.102,1.008,0.102h0.102c0.806,0.101,1.612,0.201,2.419,0.303l0,0
	c0.906,0.1,1.713,0.201,2.62,0.302l0,0c0.403,0,0.706,0.101,1.108,0.101l0,0c0.403,0,0.807,0.102,1.21,0.102l0,0
	c1.209,0.1,2.52,0.1,3.628,0.1l0,0c1.21,0,2.318,0,3.326-0.1l0,0c0.303,0,0.706-0.102,1.008-0.102l0,0
	c0.605-0.101,1.109-0.201,1.613-0.303c0,0-0.403-9.07,2.217-13.808c2.722-4.737,5.241-13.304,2.016-21.871
	c-3.124-8.567-4.535-6.35-4.031-11.994c0.303-3.729,2.52-8.164,4.334-13.002c0.907-2.419,1.814-4.838,2.218-7.357
	c0.705-3.628,0.705-7.056,0.402-9.777c-0.201-0.101-0.402-0.202-0.604-0.302c-0.302-0.202-0.504-0.403-0.806-0.706
	c-0.102-0.101-0.102-0.101-0.202-0.202c-0.201-0.202-0.403-0.403-0.604-0.604c-0.101-0.101-0.101-0.101-0.202-0.202
	c-0.201-0.302-0.504-0.605-0.705-0.907c0,0,0,0,0-0.101c-0.201-0.302-0.403-0.605-0.604-0.907c0-0.101-0.102-0.202-0.102-0.202
	c-0.201-0.302-0.302-0.604-0.402-0.907c0,0,0-0.101-0.102-0.101c-0.201-0.403-0.302-0.806-0.504-1.209l0,0
	c-0.101-0.403-0.201-0.806-0.302-1.209c0-0.101,0-0.101-0.101-0.202c-0.102-0.403-0.202-0.806-0.303-1.31l0,0
	c-0.403-0.202-0.907-0.303-1.411-0.504c-2.016-0.706-3.226-2.419-3.226-2.419c-4.334,1.31-9.676,0-9.676,0s-0.806,2.318-2.821,3.729
	c-0.605,0.403-1.311,0.706-2.117,1.109C449.925,230.909,449.421,231.11,449.018,231.312L449.018,231.312z"></path>
<path id="color_x5F_1_1_" fill="#003e4c" d="M451.94,203.091c0,0-0.807,4.939,1.108,6.955c0,0-0.101-3.427,2.016-3.125
	c2.117,0.202,2.52,6.047,1.311,7.357c-1.311,1.311-2.419,0.605-2.419,0.605s2.116,3.225,4.637,4.435
	c2.116,1.008,5.644,1.209,6.954,1.311l0,0l0,0c0.101-0.202,0.101-0.504,0.201-0.706l0,0l0,0c0,0,0-0.101,0.102-0.101l0,0l0,0
	c0.101-0.202,0.201-0.403,0.302-0.604c1.21-2.016,2.822-7.559,2.822-7.559s1.21,0.705,2.218,0.705s2.217-0.201,2.217-0.201
	s-3.729,6.047-4.233,11.49c-0.201,1.814-0.101,3.628,0.202,5.342c0.101,0.403,0.201,0.807,0.302,1.311c0,0.101,0,0.101,0.102,0.202
	c0.101,0.403,0.201,0.806,0.302,1.209l0,0c0.102,0.403,0.303,0.807,0.504,1.21c0,0.101,0,0.101,0.102,0.101
	c0.101,0.302,0.302,0.604,0.402,0.907c0,0.101,0.102,0.201,0.102,0.201c0.201,0.303,0.402,0.605,0.604,0.907c0,0,0,0,0,0.101
	c0.201,0.302,0.403,0.604,0.705,0.907c0.102,0.101,0.102,0.101,0.202,0.202c0.201,0.202,0.403,0.403,0.604,0.605
	c0.101,0.101,0.101,0.101,0.201,0.202c0.303,0.201,0.505,0.504,0.807,0.706c3.629,2.62,8.365-0.706,8.365-0.706
	s-2.116,1.411-2.821-3.125c-0.706-4.536,5.442-8.466,6.753-15.32c1.31-6.753-3.024-17.537-8.063-18.344
	c-5.04-0.705-6.35,0.907-6.35,0.907s-0.403-7.055-6.048-6.955c0,0,1.613-6.753-3.83-7.257c-5.543-0.604-4.232,1.311-8.466,1.613
	c-4.334,0.302-7.761-1.613-10.583,1.713c-2.822,3.427-0.706,9.676,2.016,11.087c2.822,1.411,4.334,1.31,4.334,1.31
	S450.73,203.595,451.94,203.091z"></path>
</svg>