<svg version="1.2" xmlns="http://www.w3.org/2000/svg" viewBox="0 0 388 430" width="848" height="940">
	<title>Captura-svg</title>
	<style>
		.s0 { fill: none;stroke: #347986;stroke-width: 2 } 
		.s1 { fill: #20232c } 
		.s2 { fill: #48cee0 } 
	</style>
	<g id="Layer">
		<path id="Layer" fill-rule="evenodd" class="s0" d="m178.9 100.4c11.2-13.2 20.5-28.5 26.9-44.6q0.1-0.1 0-0.1l-0.3-0.1q-0.1 0-0.1 0-0.1 0-0.1 0.1 0 0-0.1 0 0 0 0 0.1l-26.9 44.5q-0.1 0-0.1 0.1 0.1 0.1 0.1 0.2 0.1 0 0.2 0 0.1 0.1 0.1 0 0.2-0.1 0.3-0.2z"/>
		<path id="Layer" fill-rule="evenodd" class="s0" d="m216.5 63.2l-1.1 0.4q0 0-0.1 0.1 0 0 0 0.1-0.1 0-0.1 0.1 0 0 0.1 0.1l3.8 9.6c0.5 1.3 1.1 2.7 1.6 3.9 0.5 1.3 1 2.4 1.5 3.4q0.7 1.4 1.1 2.1 0.4 0.8 0.5 0.7l0.4-0.1q0.1-0.1-0.1-0.9-0.2-0.9-0.7-2.3c-0.3-1-0.7-2.2-1.2-3.5-0.4-1.2-1-2.6-1.5-4l-3.8-9.6q0 0-0.1 0 0-0.1-0.1-0.1 0 0-0.1 0 0 0-0.1 0z"/>
	</g>
	<path id="Layer" fill-rule="evenodd" class="s1" d="m171.7 322.9q-0.8 0.4-1.3 1.6-20.6 47.9-41.3 95.9-0.1 0.2-0.2 0.3-0.1 0.2-0.2 0.3-0.1 0.1-0.3 0.2-0.1 0.1-0.2 0.1-1 0.5-1.7-0.1-0.3-0.3-0.6-1.2-12-38.5-23.9-77-0.2-0.5-0.6-0.6-0.4-0.1-0.7 0.2-30.5 27.9-60.6 56.2-1.2 1.1-2.9 1-0.4-0.1-0.7-0.3-0.4-0.1-0.7-0.4-0.3-0.3-0.4-0.7-0.1-0.4-0.1-0.8 0-2 0.3-4.1 21-116.9 27.7-157.3 1.9-11.3 6.9-18.5 33.7-48.7 67.7-96.9 0.2-0.3 0.3-0.6 0-0.3 0-0.7 0-0.3-0.1-0.6-0.2-0.4-0.4-0.6l-76.7-80.1q-0.3-0.3-0.3-0.8-0.3-2.6 1.6-3.1 49.5-13.3 105.8-19.9c9.6-1.1 21-1.2 29.1-0.8 19.4 1 28.7 14.9 31.3 32.5q4.9 32.5 5.1 64.7 0.2 46.7-4.2 94.7c-0.1 0.7 0.3 1.8 0.9 2.4q74 77.3 148 154.6c1.6 1.7 3.6 4.6-0.3 5.5q-70.9 15.2-141.4 28.9-0.3 0.1-0.6 0-0.2 0-0.5-0.1-0.2 0-0.4-0.2-0.2-0.1-0.4-0.3l-61.4-73.1q-0.1-0.2-0.3-0.3-0.2-0.1-0.4-0.1-0.2-0.1-0.5 0-0.2 0-0.4 0.1zm-0.3-301c13.3 4.4 25.5 13.8 34.2 24.6q0.4 0.4 0.9 0.6 0.5 0.2 1.1 0.1 0.6-0.1 1-0.4 0.4-0.4 0.6-1 2.5-6.8 4.8-14.6 2.4-7.5-5.3-9.2-18.6-4-37-2-0.7 0.1-0.9 0.7-0.1 0.2-0.1 0.3 0 0.2 0.1 0.4 0.1 0.2 0.2 0.3 0.2 0.1 0.4 0.2zm35.3 31.4l0.4-1.4q0.1-0.2 0.1-0.3 0-0.2 0-0.3-0.1-0.2-0.1-0.3-0.1-0.1-0.2-0.3c-10-14.1-25.4-26.1-43.1-28.5q-6-0.8-16.1 0.5-38.2 5.1-75.1 15.3-0.1 0-0.2 0.1-0.1 0.1-0.1 0.3-0.1 0.1 0 0.2 0.1 0.1 0.2 0.2 48 27.5 94.2 58.2c6.2 4.1 10 7.3 13.3 13.2q23.1 41.7 43.6 84.7 0 0.1 0.1 0.1 0.1 0.1 0.2 0.1 0.1 0 0.2-0.1 0.1-0.1 0.1-0.2 3.8-44.6 3.7-89.6 0-7-3.4-18.9 0-0.2 0-0.3 0.1-0.2 0.2-0.3 0.1-0.1 0.3-0.1 0.1 0 0.3 0.1l0.9 0.4q0.6 0.4 0.6-0.4-0.1-28.3-8.8-55.2-0.1-0.3-0.3-0.5-0.3-0.2-0.6-0.2-0.3 0-0.5 0.2-0.3 0.2-0.4 0.4-4 10.4-7 21.6-0.4 1.4-2 1.8-0.7 0.2-0.5-0.5zm-124.3-2.4q-3.4-2.1-0.7 0.8l59.7 62.4q0.1 0.1 0.3 0.2 0.2 0.1 0.4 0 0.2 0 0.3-0.1 0.2-0.1 0.3-0.2l12-17.1q0.2-0.3 0.2-0.6 0.1-0.3 0-0.6 0-0.4-0.2-0.6-0.2-0.3-0.5-0.5zm18.7 133.3q10.5-11.4 20.9-22.8c9.2-10.2 20.1-23.1 30.6-34.3q9-9.5 12.7-21c1.7-5.1-4.1-8.5-6.8-4.6q-28.8 41.1-57.9 81.9-0.1 0.1-0.1 0.1 0 0.1 0 0.2 0 0.1 0.1 0.2 0 0 0.1 0.1l0.2 0.2q0.1 0.1 0.2 0zm70-75.5l-9 16.5q-0.2 0.4 0 0.8l50 61q0 0 0.1 0.1 0 0 0.1-0.1 0 0 0.1 0 0-0.1 0-0.2c-9.1-23.3-19.8-42.8-33.5-67.2q-3.2-5.9-6.9-11 0-0.1-0.2-0.2-0.1 0-0.3 0-0.1 0-0.2 0.1-0.1 0.1-0.2 0.2zm-95.8 114.9l142.9-15.1q0.1 0 0.2 0 0.1 0 0.2 0 0.1 0 0.2 0 0.1 0.1 0.2 0.1 1.6 0.6 3.3 0.2 0.7-0.1 0.6-0.8-0.5-3.8-3.3-7.2-30-36.1-59.2-72.5-0.1-0.1-0.2-0.2-0.1 0-0.2 0-0.1 0-0.3 0-0.1 0.1-0.2 0.2l-85 93.8q-1.6 1.7 0.8 1.5zm105 64.8q0.1 0.1 0.2 0.1 0 0 0.1 0 0-0.1 0.1-0.1 0-0.1 0.1-0.1l40.8-76.4q0-0.1 0-0.2 0-0.1 0-0.2-0.1 0-0.2-0.1-0.1 0-0.1 0l-143.5 14.3q-0.1 0-0.1 0.1-0.1 0-0.1 0.2-0.1 0.1 0 0.2 0 0 0.1 0.1zm47.2-73.9l11.4 174.1q0 0.1 0.1 0.2 0 0.1 0.1 0.1 0.2 0.1 0.3 0 0.1 0 0.2-0.1l74.6-85.1q0 0 0.1-0.1 0-0.1 0-0.1 0-0.1 0-0.2-0.1 0-0.1-0.1-42.6-44.5-85.3-89-0.4-0.4-0.6-0.4-0.1 0-0.3 0-0.1 0.1-0.2 0.2-0.1 0.1-0.2 0.2-0.1 0.2-0.1 0.3zm7.7 168.8c-2.8-55.5-6.6-110.8-10.1-166.2q0-0.1-0.1-0.2 0-0.1-0.1-0.1-0.2 0-0.3 0-0.1 0.1-0.1 0.2l-50.2 95.5q-0.2 0.5-0.3 1-0.1 0.6 0 1.1 0 0.5 0.2 1 0.2 0.5 0.6 0.9l60.6 72.1q0.7 0.8 0.9-0.3 0.5-2.2-0.8-4-0.3-0.5-0.3-1zm-161.1-158.3q-0.1-0.1-0.1-0.2-0.1-0.1-0.2-0.1-0.2 0-0.3 0-0.1 0.1-0.1 0.2-1.3 4.1 0 8.4 26.4 87.1 54.2 173.8 0.1 0.1 0.1 0.2 0.1 0.1 0.2 0.1 0.1 0.1 0.2 0.1 0.1 0 0.2 0l0.3-0.1q0.4-0.1 0.6-0.5c16.4-38.7 32.7-77.5 50.4-115.6q0.1 0 0.1-0.1 0-0.1-0.1-0.2 0 0 0-0.1-0.1-0.1-0.1-0.1l-104.7-63.4q-0.6-0.3-0.6-1zm-4.6 13.6q-0.1-0.2-0.2-0.3-0.2-0.1-0.4-0.1-0.2 0-0.4 0.1-0.1 0.2-0.2 0.4l-25.9 148.4q0 0.2 0.1 0.4 0.1 0.2 0.3 0.2 0.2 0.1 0.4 0 0.2 0 0.3-0.2l48.5-75.9q0-0.1 0.1-0.1 0-0.1 0-0.2 0 0 0-0.1 0-0.1 0-0.1zm301.2 126q0.2-0.1 0.4-0.3 0.2-0.2 0.3-0.4 0.1-0.3 0-0.5 0-0.3-0.2-0.5l-54.6-57.2q-0.1 0-0.2-0.1-0.1 0-0.3 0-0.1 0-0.2 0-0.1 0.1-0.2 0.2l-73.4 83.7q-0.1 0.2-0.1 0.3-0.1 0.2 0 0.3 0.1 0.1 0.3 0.2 0.1 0.1 0.2 0zm-271-29.2l-6.2-20q-0.1-0.1-0.2-0.2-0.1-0.1-0.2-0.1-0.1 0-0.2 0-0.1 0.1-0.2 0.2l-42 66.2q0 0 0 0.1 0 0.1 0 0.1 0.1 0.1 0.2 0.1 0 0 0.1-0.1l48.5-45.5q0.3-0.3 0.2-0.8z"/>
	<path id="Layer" class="s2" d="m205.6 46.5c-8.7-10.8-20.9-20.2-34.2-24.6q-0.2-0.1-0.4-0.2-0.1-0.1-0.2-0.3-0.1-0.2-0.1-0.4 0-0.1 0.1-0.3 0.2-0.6 0.9-0.7 18.4-2 37 2 7.7 1.7 5.3 9.2-2.3 7.8-4.8 14.7-0.2 0.5-0.6 0.9-0.4 0.3-1 0.4-0.6 0.1-1.1-0.1-0.5-0.2-0.9-0.6z"/>
	<path id="Layer" fill-rule="evenodd" class="s2" d="m207.2 53.8q1.6-0.3 2-1.8 3-11.2 7-21.5 0.1-0.3 0.4-0.5 0.2-0.2 0.5-0.2 0.3 0 0.6 0.2 0.2 0.2 0.3 0.5 8.7 26.9 8.8 55.2 0 0.8-0.6 0.4l-0.9-0.4q-0.2-0.1-0.3-0.1-0.2 0-0.3 0.1-0.1 0.1-0.2 0.3 0 0.1 0 0.3 3.4 11.9 3.4 19 0.1 44.9-3.7 89.5 0 0.1-0.1 0.2-0.1 0.1-0.2 0.1-0.1 0-0.2-0.1-0.1 0-0.1-0.1-20.5-43-43.6-84.7c-3.3-5.9-7.1-9.1-13.3-13.2q-46.2-30.7-94.2-58.2-0.1-0.1-0.2-0.2-0.1-0.1 0-0.2 0-0.2 0.1-0.3 0.1-0.1 0.2-0.1 36.9-10.2 75.1-15.2 10.1-1.4 16.1-0.6c17.7 2.4 33.1 14.4 43.1 28.5q0.1 0.2 0.2 0.3 0 0.1 0.1 0.3 0 0.1 0 0.3 0 0.1-0.1 0.3l-0.4 1.4q-0.2 0.7 0.5 0.5zm-28.3 46.6c11.2-13.2 20.5-28.5 26.9-44.6q0.1-0.1 0-0.1l-0.3-0.1q-0.1 0-0.1 0-0.1 0-0.1 0.1 0 0-0.1 0 0 0 0 0.1l-26.9 44.5q-0.1 0-0.1 0.1 0.1 0.1 0.1 0.2 0.1 0 0.2 0 0.1 0.1 0.1 0 0.2-0.1 0.3-0.2zm37.6-37.2l-1.1 0.4q0 0-0.1 0.1 0 0 0 0.1-0.1 0-0.1 0.1 0 0 0.1 0.1l3.8 9.6c0.5 1.3 1.1 2.7 1.6 3.9 0.5 1.3 1 2.4 1.5 3.4q0.7 1.4 1.1 2.1 0.4 0.8 0.5 0.7l0.4-0.1q0.1-0.1-0.1-0.9-0.2-0.9-0.7-2.3c-0.3-1-0.7-2.2-1.2-3.5-0.4-1.2-1-2.6-1.5-4l-3.8-9.6q0 0-0.1 0 0-0.1-0.1-0.1 0 0-0.1 0 0 0-0.1 0z"/>
	<path id="Layer" class="s2" d="m82.4 50.9l71.8 43.8q0.3 0.1 0.5 0.4 0.2 0.2 0.2 0.6 0.1 0.3 0 0.6 0 0.3-0.2 0.6l-12 17.1q-0.1 0.1-0.3 0.2-0.1 0.1-0.3 0.1-0.2 0.1-0.4 0-0.2-0.1-0.3-0.2l-59.7-62.4q-2.7-2.9 0.7-0.8z"/>
	<path id="Layer" class="s1" d="m205.8 55.8c-6.4 16.1-15.7 31.4-26.9 44.6q-0.1 0.1-0.3 0.2 0 0.1-0.1 0-0.1 0-0.2 0 0-0.1-0.1-0.2 0-0.1 0.1-0.1l26.9-44.5q0-0.1 0-0.1 0.1 0 0.1 0 0-0.1 0.1-0.1 0 0 0.1 0l0.3 0.1q0.1 0 0 0.1z"/>
	<path id="Layer" class="s1" d="m216.5 63.2q0.1 0 0.1 0 0.1 0 0.1 0 0.1 0 0.1 0.1 0.1 0 0.1 0l3.8 9.6c0.5 1.4 1.1 2.8 1.5 4 0.5 1.3 0.9 2.5 1.2 3.5q0.5 1.4 0.7 2.3 0.2 0.8 0.1 0.9l-0.4 0.1q-0.1 0.1-0.5-0.7-0.4-0.7-1.1-2.1c-0.5-1-1-2.1-1.5-3.4-0.5-1.2-1.1-2.6-1.6-3.9l-3.8-9.6q-0.1-0.1-0.1-0.1 0-0.1 0.1-0.1 0-0.1 0-0.1 0.1-0.1 0.1-0.1z"/>
	<path id="Layer" class="s2" d="m101.1 184.1q-0.1 0.1-0.3 0l-0.2-0.2q0 0-0.1-0.1 0-0.1 0-0.1 0-0.1 0-0.2 0-0.1 0.1-0.2 29.1-40.8 57.8-81.9c2.7-3.8 8.5-0.4 6.9 4.6q-3.7 11.6-12.7 21.1c-10.5 11.1-21.4 24.1-30.7 34.2q-10.3 11.5-20.8 22.8z"/>
	<path id="Layer" class="s2" d="m171 108.6q0.1-0.1 0.2-0.2 0.2-0.1 0.3-0.1 0.1 0 0.3 0.1 0.1 0.1 0.2 0.2 3.6 5.1 6.9 10.9c13.7 24.4 24.3 44 33.4 67.3q0 0 0 0.1 0 0.1-0.1 0.1 0 0-0.1 0 0 0-0.1 0l-49.9-61.1q-0.3-0.3-0.1-0.7z"/>
	<path id="Layer" class="s2" d="m218.2 208.4l-142.9 15.1q-2.4 0.3-0.8-1.5l85-93.8q0.1-0.1 0.2-0.1 0.1-0.1 0.2-0.1 0.2 0 0.3 0.1 0.1 0 0.2 0.1 29.2 36.5 59.2 72.5 2.8 3.4 3.3 7.2 0 0.7-0.6 0.8-1.7 0.4-3.3-0.1-0.1-0.1-0.2-0.1-0.1 0-0.2 0-0.1-0.1-0.2-0.1-0.1 0-0.2 0z"/>
	<path id="Layer" class="s2" d="m180.3 288.4l-102.6-62.1q-0.1-0.1-0.2-0.2 0-0.1 0-0.2 0-0.1 0.1-0.2 0.1 0 0.2 0l143.4-14.3q0.1-0.1 0.2 0 0.1 0 0.1 0.1 0.1 0.1 0.1 0.2 0 0-0.1 0.1l-40.8 76.4q0 0.1 0 0.1-0.1 0.1-0.2 0.1 0 0-0.1 0-0.1 0-0.1 0z"/>
	<path id="Layer" class="s2" d="m238.8 388.5l-11.3-174q0-0.1 0.1-0.3 0-0.1 0.1-0.2 0.2-0.1 0.3-0.2 0.2 0 0.3 0 0.2 0 0.5 0.4 42.8 44.5 85.4 89 0 0 0 0.1 0.1 0.1 0.1 0.1 0 0.1-0.1 0.2 0 0 0 0.1l-74.7 85.1q0 0.1-0.2 0.1-0.1 0-0.2 0-0.1-0.1-0.2-0.2 0 0-0.1-0.2z"/>
	<path id="Layer" class="s2" d="m225.1 217.1c3.5 55.4 7.3 110.7 10.1 166.2q0 0.5 0.3 0.9 1.2 1.8 0.8 4.1-0.2 1.1-0.9 0.3l-60.6-72.1q-0.4-0.4-0.6-0.9-0.2-0.5-0.3-1 0-0.6 0.1-1.1 0.1-0.5 0.3-1l50.2-95.6q0-0.1 0.1-0.1 0.1-0.1 0.2 0 0.1 0 0.2 0.1 0.1 0.1 0.1 0.2z"/>
	<path id="Layer" class="s2" d="m74 225l0.2 1.4q0 0.7 0.6 1l104.6 63.4q0.1 0 0.2 0.1 0 0 0 0.1 0.1 0.1 0 0.2 0 0 0 0.1c-17.7 38.1-34 76.9-50.4 115.6q-0.2 0.4-0.6 0.5h-0.3q-0.1 0.1-0.2 0.1-0.1-0.1-0.2-0.1-0.1-0.1-0.2-0.2-0.1 0-0.1-0.1-27.8-86.7-54.2-173.8-1.3-4.3 0-8.4 0-0.1 0.1-0.2 0.1 0 0.2 0 0.2 0 0.2 0.1 0.1 0.1 0.1 0.2z"/>
	<path id="Layer" class="s2" d="m69.5 238.5l22.5 72.5q0 0.1 0.1 0.1 0 0.1 0 0.2-0.1 0-0.1 0.1 0 0 0 0.1l-48.5 75.9q-0.1 0.2-0.3 0.3-0.3 0-0.5 0-0.2-0.1-0.3-0.3-0.1-0.2 0-0.4l25.9-148.4q0-0.2 0.2-0.4 0.1-0.1 0.4-0.1 0.2 0 0.3 0.1 0.2 0.1 0.3 0.3z"/>
	<path id="Layer" class="s2" d="m370.7 364.5l-127.9 25.8q-0.2 0-0.3 0-0.2-0.1-0.3-0.2-0.1-0.2 0-0.3 0-0.2 0.1-0.3l73.5-83.8q0-0.1 0.1-0.1 0.1-0.1 0.2-0.1 0.2 0 0.3 0.1 0.1 0 0.2 0.1l54.6 57.2q0.2 0.2 0.2 0.4 0.1 0.3 0 0.5-0.1 0.3-0.3 0.5-0.2 0.2-0.4 0.2z"/>
	<path id="Layer" class="s2" d="m93.4 315.3l6.2 20q0.2 0.5-0.2 0.8l-48.5 45.5q0 0.1-0.1 0.1-0.1 0-0.1-0.1-0.1 0-0.1-0.1 0-0.1 0-0.1l42.1-66.2q0-0.1 0.1-0.2 0.1 0 0.3 0 0.1 0 0.2 0.1 0 0.1 0.1 0.2z"/>
</svg>